<svg width="180" height="180" viewBox="0 0 180 180" fill="none" xmlns="http://www.w3.org/2000/svg">
  <rect x="18" y="18" width="144" height="144" rx="32" fill="#0B0B0B"/>
  <rect x="30" y="30" width="120" height="120" rx="24" fill="#FFF7F0"/>
  <path d="M52 52H76V66H66V114H52V52ZM95 52H132V66H102V78H124V92H102V114H88V66H95V52Z" fill="#FF6A00"/>
  <path d="M92 66H114V82H92V66ZM92 90H122V106H92V90ZM92 114H118V130H92V114Z" fill="#111111" opacity="0.9"/>
  <rect x="46" y="122" width="66" height="8" rx="4" fill="#FF8A3D"/>
  <path d="M112 44L128 58L112 72" stroke="#FF6A00" stroke-width="8" stroke-linecap="round" stroke-linejoin="round"/>
  <path d="M134 44L118 58L134 72" stroke="#FF6A00" stroke-width="8" stroke-linecap="round" stroke-linejoin="round" opacity="0.8"/>
</svg>
